<svg width="735" height="186" viewBox="0 0 735 186" fill="none" xmlns="http://www.w3.org/2000/svg">
<path d="M24 10.6094V79.7903C24 114.838 51.4063 123.067 63.1519 123.067C86.0407 123.067 102.605 104.171 102.605 79.7903M102.605 79.7903V10.6094M102.605 79.7903C102.605 104.171 118.266 123.067 141.757 123.067C154.707 123.067 180.909 114.838 180.909 79.7903V10.6094" stroke="black" stroke-width="30"/>
<path d="M720 137.695V68.5144C720 33.4667 692.594 25.2382 680.848 25.2382C657.959 25.2382 641.395 44.1334 641.395 68.5144M641.395 68.5144V137.695M641.395 68.5144C641.395 44.1334 625.734 25.2382 602.243 25.2382C589.293 25.2382 563.091 33.4667 563.091 68.5144V137.695" stroke="black" stroke-width="30"/>
<path d="M229.094 137.996V70.9487C229.094 47.1773 245.357 24.9297 274.269 24.9297" stroke="black" stroke-width="30"/>
<path d="M390.881 74C390.881 101.23 369.114 123 342.636 123C316.158 123 294.391 101.23 294.391 74C294.391 46.7698 316.158 25 342.636 25C369.114 25 390.881 46.7698 390.881 74Z" stroke="black" stroke-width="30"/>
<path d="M523.999 74C523.999 101.23 502.231 123 475.753 123C449.275 123 427.508 101.23 427.508 74C427.508 46.7698 449.275 25 475.753 25C502.231 25 523.999 46.7698 523.999 74Z" stroke="black" stroke-width="30"/>
<path d="M166 171L303 171" stroke="#FC83FF" stroke-width="30"/>
<path d="M24 156C15.7157 156 9 162.716 9 171C9 179.284 15.7157 186 24 186L24 156ZM24 186L166 186L166 156L24 156L24 186Z" fill="#FF4B4B"/>
<path d="M303 171L442 171" stroke="#5787FF" stroke-width="30"/>
<path d="M442 171L579 171" stroke="#00843E" stroke-width="30"/>
<path d="M720 186C728.284 186 735 179.284 735 171C735 162.716 728.284 156 720 156L720 186ZM579 186L720 186L720 156L579 156L579 186Z" fill="#FFAA01"/>
<path d="M166 171L303 171" stroke="#FFAA01" stroke-width="30"/>
<path d="M24 156C15.7157 156 9 162.716 9 171C9 179.284 15.7157 186 24 186L24 156ZM24 186L166 186L166 156L24 156L24 186Z" fill="#FF4B4B"/>
<path d="M303 171L442 171" stroke="#FC83FF" stroke-width="30"/>
<path d="M442 171L579 171" stroke="#5787FF" stroke-width="30"/>
<path d="M720 186C728.284 186 735 179.284 735 171C735 162.716 728.284 156 720 156L720 186ZM579 186L720 186L720 156L579 156L579 186Z" fill="#00843E"/>
<path d="M0 127V77L73 1H123L0 127Z" fill="#FF4B4B"/>
<path d="M23.4993 94.3896L6.92351 78.0537L13.4643 71.4169C14.6661 70.1974 15.8492 69.3585 17.0137 68.9C18.1782 68.4415 19.2835 68.3236 20.3298 68.5464C21.3706 68.7638 22.3065 69.2819 23.1375 70.1009C23.785 70.739 24.2266 71.4295 24.4624 72.1724C24.6927 72.91 24.741 73.6596 24.6073 74.4213C24.4735 75.1723 24.1869 75.9002 23.7474 76.6052L23.9092 76.7647C24.5584 76.16 25.3187 75.7446 26.1903 75.5187C27.0671 75.2873 27.9725 75.2914 28.9064 75.531C29.8348 75.7653 30.7065 76.2839 31.5212 77.0869C32.4007 77.9537 32.9704 78.9459 33.2304 80.0637C33.4902 81.1707 33.4024 82.3445 32.9668 83.5851C32.5312 84.8258 31.7018 86.0666 30.4788 87.3076L23.4993 94.3896ZM24.088 88.0614L26.9037 85.2043C27.8662 84.2277 28.382 83.332 28.4511 82.5172C28.5147 81.6971 28.2336 80.9786 27.6077 80.3618C27.149 79.9098 26.6353 79.6216 26.0666 79.4971C25.4978 79.3727 24.9116 79.4172 24.3078 79.6305C23.7093 79.8384 23.1336 80.223 22.5805 80.7841L19.6851 83.7221L24.088 88.0614ZM17.3136 81.385L19.8741 78.7869C20.3473 78.3067 20.6838 77.798 20.8835 77.2609C21.083 76.713 21.1327 76.1769 21.0324 75.6527C20.9375 75.123 20.6715 74.6428 20.2345 74.2121C19.6355 73.6218 18.9426 73.359 18.1556 73.4237C17.3739 73.483 16.6001 73.9011 15.8344 74.6781L13.2101 77.3409L17.3136 81.385ZM43.0666 74.535L26.4908 58.199L37.4984 47.0298L40.3878 49.8774L32.8341 57.5421L36.7838 61.4347L43.7712 54.3446L46.6606 57.1922L39.6732 64.2823L43.631 68.1828L51.2167 60.4857L54.1061 63.3333L43.0666 74.535ZM47.2286 42.9362L44.3391 40.0886L57.7557 26.4751L60.6451 29.3227L55.6438 34.3974L69.3302 47.8857L65.9162 51.3498L52.2299 37.8615L47.2286 42.9362ZM82.0776 34.9511L78.3764 38.7066L67.44 16.6485L71.8909 12.1322L94.0982 22.754L90.3971 26.5095L73.5171 18.0586L73.3895 18.1881L82.0776 34.9511ZM75.3308 28.7648L84.0731 19.8941L86.8088 22.5902L78.0665 31.4608L75.3308 28.7648Z" fill="white"/>
</svg>
