<svg width="184" height="44" viewBox="0 0 184 44" fill="none" xmlns="http://www.w3.org/2000/svg">
<g clip-path="url(#clip0_608_4840)">
<path d="M4.75 1.15234V18.4476C4.75 27.2095 11.6016 29.2666 14.538 29.2666C20.2602 29.2666 24.4012 24.5428 24.4012 18.4476M24.4012 18.4476V1.15234M24.4012 18.4476C24.4012 24.5428 28.3164 29.2666 34.1892 29.2666C37.4268 29.2666 43.9772 27.2095 43.9772 18.4476V1.15234" stroke="black" stroke-width="7.5"/>
<path d="M178.75 32.9219V15.6266C178.75 6.86473 171.898 4.80759 168.962 4.80759C163.24 4.80759 159.099 9.5314 159.099 15.6266M159.099 15.6266V32.9219M159.099 15.6266C159.099 9.5314 155.184 4.80759 149.311 4.80759C146.073 4.80759 139.523 6.86473 139.523 15.6266V32.9219" stroke="black" stroke-width="7.5"/>
<path d="M56.0234 33.001V16.2391C56.0234 10.2963 60.0892 4.73438 67.3172 4.73438" stroke="black" stroke-width="7.5"/>
<path d="M96.4703 17C96.4703 23.8075 91.0285 29.25 84.409 29.25C77.7895 29.25 72.3477 23.8075 72.3477 17C72.3477 10.1925 77.7895 4.75 84.409 4.75C91.0285 4.75 96.4703 10.1925 96.4703 17Z" stroke="black" stroke-width="7.5"/>
<path d="M129.75 17C129.75 23.8075 124.308 29.25 117.688 29.25C111.069 29.25 105.627 23.8075 105.627 17C105.627 10.1925 111.069 4.75 117.688 4.75C124.308 4.75 129.75 10.1925 129.75 17Z" stroke="black" stroke-width="7.5"/>
<path d="M39.7012 39.25H74.5012" stroke="#FC83FF" stroke-width="7.5"/>
<path d="M4 35.5039C1.92893 35.5039 0.25 37.1828 0.25 39.2539C0.25 41.325 1.92893 43.0039 4 43.0039V35.5039ZM4 43.0039H39.8V35.5039H4V43.0039Z" fill="#FF4B4B"/>
<path d="M74.5 39.25H109.3" stroke="#5787FF" stroke-width="7.5"/>
<path d="M109.297 39.2422H144.097" stroke="#00843E" stroke-width="7.5"/>
<path d="M179.5 42.9922C181.571 42.9922 183.25 41.3133 183.25 39.2422C183.25 37.1711 181.571 35.4922 179.5 35.4922V42.9922ZM144.098 42.9922H179.5V35.4922H144.098V42.9922Z" fill="#FFAA01"/>
<path d="M39.7012 39.25H74.5012" stroke="#FC83FF" stroke-width="7.5"/>
<path d="M4 35.5039C1.92893 35.5039 0.25 37.1828 0.25 39.2539C0.25 41.325 1.92893 43.0039 4 43.0039V35.5039ZM4 43.0039H39.8V35.5039H4V43.0039Z" fill="#FF4B4B"/>
<path d="M74.5 39.25H109.3" stroke="#5787FF" stroke-width="7.5"/>
<path d="M109.297 39.2422H144.097" stroke="#00843E" stroke-width="7.5"/>
<path d="M179.5 42.9922C181.571 42.9922 183.25 41.3133 183.25 39.2422C183.25 37.1711 181.571 35.4922 179.5 35.4922V42.9922ZM144.098 42.9922H179.5V35.4922H144.098V42.9922Z" fill="#FFAA01"/>
</g>
<defs>
<clipPath id="clip0_608_4840">
<rect width="184" height="44" fill="white"/>
</clipPath>
</defs>
</svg>
