<svg width="185" height="44" viewBox="0 0 185 44" fill="none" xmlns="http://www.w3.org/2000/svg">
<g clip-path="url(#clip0_828_6583)">
<rect width="185" height="44" fill="white"/>
<path d="M4.75 0.152344V17.4476C4.75 26.2095 11.6016 28.2666 14.538 28.2666C20.2602 28.2666 24.4012 23.5428 24.4012 17.4476M24.4012 17.4476V0.152344M24.4012 17.4476C24.4012 23.5428 28.3164 28.2666 34.1892 28.2666C37.4268 28.2666 43.9772 26.2095 43.9772 17.4476V0.152344" stroke="black" stroke-width="7.5"/>
<path d="M178.75 31.9219V14.6266C178.75 5.86473 171.898 3.80759 168.962 3.80759C163.24 3.80759 159.099 8.5314 159.099 14.6266M159.099 14.6266V31.9219M159.099 14.6266C159.099 8.5314 155.184 3.80759 149.311 3.80759C146.073 3.80759 139.523 5.86473 139.523 14.6266V31.9219" stroke="black" stroke-width="7.5"/>
<path d="M56.0234 32.001V15.2391C56.0234 9.29628 60.0892 3.73438 67.3172 3.73438" stroke="black" stroke-width="7.5"/>
<path d="M96.4703 16C96.4703 22.8075 91.0285 28.25 84.409 28.25C77.7895 28.25 72.3477 22.8075 72.3477 16C72.3477 9.19245 77.7895 3.75 84.409 3.75C91.0285 3.75 96.4703 9.19245 96.4703 16Z" stroke="black" stroke-width="7.5"/>
<path d="M129.75 16C129.75 22.8075 124.308 28.25 117.688 28.25C111.069 28.25 105.627 22.8075 105.627 16C105.627 9.19245 111.069 3.75 117.688 3.75C124.308 3.75 129.75 9.19245 129.75 16Z" stroke="black" stroke-width="7.5"/>
<path d="M39.7012 40.25H74.5012" stroke="#FC83FF" stroke-width="7.5"/>
<path d="M4 36.5039C1.92893 36.5039 0.25 38.1828 0.25 40.2539C0.25 42.325 1.92893 44.0039 4 44.0039V36.5039ZM4 44.0039H39.8V36.5039H4V44.0039Z" fill="#FF4B4B"/>
<path d="M74.5 40.25H109.3" stroke="#5787FF" stroke-width="7.5"/>
<path d="M109.297 40.2422H144.097" stroke="#00843E" stroke-width="7.5"/>
<path d="M179.5 43.9922C181.571 43.9922 183.25 42.3133 183.25 40.2422C183.25 38.1711 181.571 36.4922 179.5 36.4922V43.9922ZM144.098 43.9922H179.5V36.4922H144.098V43.9922Z" fill="#FFAA01"/>
<path d="M39.7012 40.25H74.5012" stroke="#FFAA01" stroke-width="7.5"/>
<path d="M4 36.5039C1.92893 36.5039 0.25 38.1828 0.25 40.2539C0.25 42.325 1.92893 44.0039 4 44.0039V36.5039ZM4 44.0039H39.8V36.5039H4V44.0039Z" fill="#FF4B4B"/>
<path d="M74.5 40.25H109.3" stroke="#FC83FF" stroke-width="7.5"/>
<path d="M109.297 40.2422H144.097" stroke="#5787FF" stroke-width="7.5"/>
<path d="M179.5 43.9922C181.571 43.9922 183.25 42.3133 183.25 40.2422C183.25 38.1711 181.571 36.4922 179.5 36.4922V43.9922ZM144.098 43.9922H179.5V36.4922H144.098V43.9922Z" fill="#00843E"/>
</g>
<defs>
<clipPath id="clip0_828_6583">
<rect width="185" height="44" fill="white"/>
</clipPath>
</defs>
</svg>
